<?xml version="1.0" encoding="UTF-8" standalone="no"?>
<svg
   xmlns:dc="http://purl.org/dc/elements/1.1/"
   xmlns:cc="http://creativecommons.org/ns#"
   xmlns:rdf="http://www.w3.org/1999/02/22-rdf-syntax-ns#"
   xmlns:svg="http://www.w3.org/2000/svg"
   xmlns="http://www.w3.org/2000/svg"
   xmlns:sodipodi="http://sodipodi.sourceforge.net/DTD/sodipodi-0.dtd"
   xmlns:inkscape="http://www.inkscape.org/namespaces/inkscape"
   version="1.1"
   id="Capa_1"
   x="0px"
   y="0px"
   viewBox="0 0 480 480"
   style="enable-background:new 0 0 480 480;"
   xml:space="preserve"
   sodipodi:docname="coding.svg"
   inkscape:version="1.0.1 (3bc2e813f5, 2020-09-07)"><metadata
   id="metadata193"><rdf:RDF><cc:Work
       rdf:about=""><dc:format>image/svg+xml</dc:format><dc:type
         rdf:resource="http://purl.org/dc/dcmitype/StillImage" /></cc:Work></rdf:RDF></metadata><defs
   id="defs191" /><sodipodi:namedview
   pagecolor="#ffffff"
   bordercolor="#666666"
   borderopacity="1"
   objecttolerance="10"
   gridtolerance="10"
   guidetolerance="10"
   inkscape:pageopacity="0"
   inkscape:pageshadow="2"
   inkscape:window-width="1920"
   inkscape:window-height="1017"
   id="namedview189"
   showgrid="false"
   inkscape:zoom="1.2521683"
   inkscape:cx="262.3197"
   inkscape:cy="214.88391"
   inkscape:window-x="-8"
   inkscape:window-y="-8"
   inkscape:window-maximized="1"
   inkscape:current-layer="Capa_1" />
<g
   id="g6">
	<g
   id="g4">
		<path
   d="M440,56h-72v-9.472c9.288-3.312,16-12.112,16-22.528c0-13.232-10.768-24-24-24s-24,10.768-24,24    c0,10.416,6.712,19.216,16,22.528V56H128v-9.472c9.288-3.312,16-12.112,16-22.528c0-13.232-10.768-24-24-24S96,10.768,96,24    c0,10.416,6.712,19.216,16,22.528V56H40C17.944,56,0,73.944,0,96v264c0,22.056,17.944,40,40,40h139.056l-16,32H112    c-4.424,0-8,3.576-8,8c0,22.056,17.944,40,40,40h192c22.056,0,40-17.944,40-40c0-4.424-3.576-8-8-8h-51.056l-16-32H440    c22.056,0,40-17.944,40-40V96C480,73.944,462.056,56,440,56z M360,16c4.416,0,8,3.584,8,8s-3.584,8-8,8c-4.416,0-8-3.584-8-8    S355.584,16,360,16z M120,16c4.416,0,8,3.584,8,8s-3.584,8-8,8s-8-3.584-8-8S115.584,16,120,16z M312,448h46.632    c-3.304,9.312-12.2,16-22.632,16H144c-10.432,0-19.328-6.688-22.632-16H168H312z M180.944,432l16-32h86.112l16,32H180.944z     M464,360c0,13.232-10.768,24-24,24H288h-96H40c-13.232,0-24-10.768-24-24v-24h448V360z M464,320H16V96c0-13.232,10.768-24,24-24    h400c13.232,0,24,10.768,24,24V320z"
   id="path2"
   style="fill:#fffffe;fill-opacity:1" />
	</g>
</g>
<g
   id="g12">
	<g
   id="g10">
		<rect
   x="232"
   y="352"
   width="16"
   height="16"
   id="rect8"
   style="fill:#fffffe;fill-opacity:1" />
	</g>
</g>
<g
   id="g18">
	<g
   id="g16">
		<rect
   x="200"
   y="352"
   width="16"
   height="16"
   id="rect14"
   style="fill:#fffffe;fill-opacity:1" />
	</g>
</g>
<g
   id="g24">
	<g
   id="g22">
		<rect
   x="264"
   y="352"
   width="16"
   height="16"
   id="rect20"
   style="fill:#fffffe;fill-opacity:1" />
	</g>
</g>
<g
   id="g30">
	<g
   id="g28">
		<path
   d="M69.656,101.656L58.344,90.344l-24,24c-3.128,3.128-3.128,8.184,0,11.312l24,24l11.312-11.312L51.312,120L69.656,101.656z    "
   id="path26"
   style="fill:#fffffe;fill-opacity:1" />
	</g>
</g>
<g
   id="g36">
	<g
   id="g34">
		<path
   d="M221.656,114.344l-24-24l-11.312,11.312L204.688,120l-18.344,18.344l11.312,11.312l24-24    C224.784,122.528,224.784,117.472,221.656,114.344z"
   id="path32"
   style="fill:#fffffe;fill-opacity:1" />
	</g>
</g>
<g
   id="g42">
	<g
   id="g40">
		<path
   d="M125.656,189.656l-11.312-11.312l-24,24c-3.128,3.128-3.128,8.184,0,11.312l24,24l11.312-11.312L107.312,208    L125.656,189.656z"
   id="path38"
   style="fill:#fffffe;fill-opacity:1" />
	</g>
</g>
<g
   id="g48">
	<g
   id="g46">
		<path
   d="M373.656,202.344l-24-24l-11.312,11.312L356.688,208l-18.344,18.344l11.312,11.312l24-24    C376.784,210.528,376.784,205.472,373.656,202.344z"
   id="path44"
   style="fill:#fffffe;fill-opacity:1" />
	</g>
</g>
<g
   id="g54">
	<g
   id="g52">
		<path
   d="M125.656,261.656l-11.312-11.312l-24,24c-3.128,3.128-3.128,8.184,0,11.312l24,24l11.312-11.312L107.312,280    L125.656,261.656z"
   id="path50"
   style="fill:#fffffe;fill-opacity:1" />
	</g>
</g>
<g
   id="g60">
	<g
   id="g58">
		<path
   d="M229.656,274.344l-24-24l-11.312,11.312L212.688,280l-18.344,18.344l11.312,11.312l24-24    C232.784,282.528,232.784,277.472,229.656,274.344z"
   id="path56"
   style="fill:#fffffe;fill-opacity:1" />
	</g>
</g>
<g
   id="g66">
	<g
   id="g64">
		<path
   d="M333.656,261.656l-11.312-11.312l-24,24c-3.128,3.128-3.128,8.184,0,11.312l24,24l11.312-11.312L315.312,280    L333.656,261.656z"
   id="path62"
   style="fill:#fffffe;fill-opacity:1" />
	</g>
</g>
<g
   id="g72">
	<g
   id="g70">
		<path
   d="M437.656,274.344l-24-24l-11.312,11.312L420.688,280l-18.344,18.344l11.312,11.312l24-24    C440.784,282.528,440.784,277.472,437.656,274.344z"
   id="path68"
   style="fill:#fffffe;fill-opacity:1" />
	</g>
</g>
<g
   id="g78">
	<g
   id="g76">
		<rect
   x="88"
   y="128"
   width="16"
   height="16"
   id="rect74"
   style="fill:#fffffe;fill-opacity:1" />
	</g>
</g>
<g
   id="g84">
	<g
   id="g82">
		<rect
   x="120"
   y="128"
   width="16"
   height="16"
   id="rect80"
   style="fill:#fffffe;fill-opacity:1" />
	</g>
</g>
<g
   id="g90">
	<g
   id="g88">
		<rect
   x="152"
   y="128"
   width="16"
   height="16"
   id="rect86"
   style="fill:#fffffe;fill-opacity:1" />
	</g>
</g>
<g
   id="g96">
	<g
   id="g94">
		<rect
   x="240"
   y="128"
   width="16"
   height="16"
   id="rect92"
   style="fill:#fffffe;fill-opacity:1" />
	</g>
</g>
<g
   id="g102">
	<g
   id="g100">
		<rect
   x="272"
   y="128"
   width="16"
   height="16"
   id="rect98"
   style="fill:#fffffe;fill-opacity:1" />
	</g>
</g>
<g
   id="g108">
	<g
   id="g106">
		<rect
   x="304"
   y="128"
   width="16"
   height="16"
   id="rect104"
   style="fill:#fffffe;fill-opacity:1" />
	</g>
</g>
<g
   id="g114">
	<g
   id="g112">
		<path
   d="M360,120h-16v16h8v6.704l-7.584,22.768l15.168,5.064l8-24c0.272-0.824,0.416-1.68,0.416-2.536v-16    C368,123.576,364.424,120,360,120z"
   id="path110"
   style="fill:#fffffe;fill-opacity:1" />
	</g>
</g>
<g
   id="g120">
	<g
   id="g118">
		<rect
   x="344"
   y="88"
   width="16"
   height="16"
   id="rect116"
   style="fill:#fffffe;fill-opacity:1" />
	</g>
</g>
<g
   id="g126">
	<g
   id="g124">
		<path
   d="M184,168h-32c-4.424,0-8,3.576-8,8v56c0,4.424,3.576,8,8,8h32c4.424,0,8-3.576,8-8v-56C192,171.576,188.424,168,184,168z     M176,224h-16v-40h16V224z"
   id="path122"
   style="fill:#fffffe;fill-opacity:1" />
	</g>
</g>
<g
   id="g132">
	<g
   id="g130">
		<path
   d="M248,168h-32c-4.424,0-8,3.576-8,8v56c0,4.424,3.576,8,8,8h32c4.424,0,8-3.576,8-8v-56C256,171.576,252.424,168,248,168z     M240,224h-16v-40h16V224z"
   id="path128"
   style="fill:#fffffe;fill-opacity:1" />
	</g>
</g>
<g
   id="g138">
	<g
   id="g136">
		<path
   d="M312,168h-32c-4.424,0-8,3.576-8,8v56c0,4.424,3.576,8,8,8h32c4.424,0,8-3.576,8-8v-56C320,171.576,316.424,168,312,168z     M304,224h-16v-40h16V224z"
   id="path134"
   style="fill:#fffffe;fill-opacity:1" />
	</g>
</g>
<g
   id="g144">
	<g
   id="g142">
		<rect
   x="328.601"
   y="259.961"
   transform="matrix(0.4061 -0.9138 0.9138 0.4061 -26.3195 495.4225)"
   width="78.79"
   height="16"
   id="rect140"
   style="fill:#fffffe;fill-opacity:1" />
	</g>
</g>
<g
   id="g150">
	<g
   id="g148">
		<rect
   x="240"
   y="296"
   width="16"
   height="16"
   id="rect146"
   style="fill:#fffffe;fill-opacity:1" />
	</g>
</g>
<g
   id="g156">
	<g
   id="g154">
		<rect
   x="272"
   y="296"
   width="16"
   height="16"
   id="rect152"
   style="fill:#fffffe;fill-opacity:1" />
	</g>
</g>
<g
   id="g158">
</g>
<g
   id="g160">
</g>
<g
   id="g162">
</g>
<g
   id="g164">
</g>
<g
   id="g166">
</g>
<g
   id="g168">
</g>
<g
   id="g170">
</g>
<g
   id="g172">
</g>
<g
   id="g174">
</g>
<g
   id="g176">
</g>
<g
   id="g178">
</g>
<g
   id="g180">
</g>
<g
   id="g182">
</g>
<g
   id="g184">
</g>
<g
   id="g186">
</g>
</svg>
