<?xml version="1.0" encoding="UTF-8" standalone="no"?>
<svg
   xmlns:dc="http://purl.org/dc/elements/1.1/"
   xmlns:cc="http://creativecommons.org/ns#"
   xmlns:rdf="http://www.w3.org/1999/02/22-rdf-syntax-ns#"
   xmlns:svg="http://www.w3.org/2000/svg"
   xmlns="http://www.w3.org/2000/svg"
   xmlns:sodipodi="http://sodipodi.sourceforge.net/DTD/sodipodi-0.dtd"
   xmlns:inkscape="http://www.inkscape.org/namespaces/inkscape"
   id="Capa_1"
   enable-background="new 0 0 512.139 512.139"
   height="512"
   viewBox="0 0 512.139 512.139"
   width="512"
   version="1.1"
   sodipodi:docname="drone.svg"
   inkscape:version="1.0.1 (3bc2e813f5, 2020-09-07)">
  <metadata
     id="metadata15">
    <rdf:RDF>
      <cc:Work
         rdf:about="">
        <dc:format>image/svg+xml</dc:format>
        <dc:type
           rdf:resource="http://purl.org/dc/dcmitype/StillImage" />
      </cc:Work>
    </rdf:RDF>
  </metadata>
  <defs
     id="defs13" />
  <sodipodi:namedview
     pagecolor="#ffffff"
     bordercolor="#666666"
     borderopacity="1"
     objecttolerance="10"
     gridtolerance="10"
     guidetolerance="10"
     inkscape:pageopacity="0"
     inkscape:pageshadow="2"
     inkscape:window-width="1920"
     inkscape:window-height="1017"
     id="namedview11"
     showgrid="false"
     inkscape:zoom="1.6601562"
     inkscape:cx="256"
     inkscape:cy="256"
     inkscape:window-x="-8"
     inkscape:window-y="-8"
     inkscape:window-maximized="1"
     inkscape:current-layer="g8" />
  <g
     id="g8">
    <g
       id="g4">
      <path
         d="m256.052 293.746c-20.678 0-37.5-16.822-37.5-37.5s16.822-37.5 37.5-37.5 37.5 16.822 37.5 37.5-16.822 37.5-37.5 37.5zm0-60c-12.406 0-22.5 10.093-22.5 22.5s10.094 22.5 22.5 22.5 22.5-10.093 22.5-22.5-10.093-22.5-22.5-22.5z"
         id="path2"
         style="fill:#ffffff;fill-opacity:1" />
    </g>
    <path
       d="m495.673 384.563c1.99 4.736 4.846 6.82 8.566 6.253 4.093-.639 6.893-4.474 6.254-8.567-11.15-71.436-89.657-114.978-156.58-85.432-14.05-24.79-14.111-56.009-.164-80.854 38.722 17.16 88.904 7.993 126.303-23.384 39.333-33 45.667-114.333.333-160-40.186-40.482-117.165-46.358-162.083.167-34.917 36.167-40.208 84.208-21.9 125.756-7.853 4.411-16.405 7.524-25.364 9.167-4.073.747-6.771 4.656-6.023 8.73.747 4.075 4.652 6.771 8.73 6.024 18.103-3.321 35.145-11.884 48.602-24.404.558-.51 15.958-15.882 31.875-31.782 2.351 16.447 15.409 29.48 31.867 31.796l-29.27 29.27c-18.416 18.417-28.559 42.901-28.559 68.943s10.143 50.527 28.559 68.943l29.218 29.218c-16.446 2.338-29.485 15.379-31.82 31.826l-29.221-29.221c-18.417-18.417-42.901-28.559-68.943-28.559s-50.526 10.143-68.943 28.559l-29.267 29.267c-2.314-16.453-15.34-29.509-31.78-31.867l29.224-29.224c18.416-18.417 28.56-42.901 28.56-68.943s-10.144-50.527-28.56-68.943l-29.276-29.276c16.452-2.336 29.496-15.383 31.827-31.836 15.929 15.913 31.348 31.304 31.875 31.786 13.477 12.539 30.516 21.12 48.646 24.446 4.079.747 7.983-1.95 8.73-6.024s-1.949-7.983-6.023-8.73c-8.785-1.611-17.181-4.632-24.917-8.915 17.182-38.746 11.755-93.553-23.43-127.174-42.907-41-119.407-42.333-161 2-39.845 42.47-45.322 122.639 2.774 159.716 32.229 31.683 82.488 41.035 123.973 22.864 13.8 24.74 13.741 55.759-.156 80.448-41.345-18.132-91.226-9.552-124.008 21.388-22.25 21-33.49 55.469-33.49 81.75 0 26.988 9.701 53.086 27.317 73.488 16.118 18.668 43.378 37.743 68.852 37.743 3.632 0 6.824-2.644 7.401-6.344.639-4.093-2.161-7.928-6.254-8.567-18.518-2.89-35.05-10.781-48.365-22.164l50.782-50.782c9.714 5.804 19.752 7.331 30.113 4.58l46.202 46.202c-13.315 11.383-29.847 19.274-48.365 22.164-4.093.639-6.893 4.474-6.254 8.567.577 3.701 3.769 6.344 7.401 6.344 20.31 0 50.635-16.374 63.706-32.213 32.144-32.544 41.393-83.069 22.67-124.963 24.773-13.794 55.826-13.697 80.516.255-17.133 38.553-14.12 92.718 23.393 126.315 45.5 40.75 109.175 42.324 152.913 4.558 19.919-17.199 33.592-41.673 37.652-67.687.639-4.093-2.161-7.928-6.254-8.567-4.1-.641-7.929 2.162-8.566 6.253-2.891 18.521-10.783 35.055-22.169 48.371l-50.957-50.957c6.03-9.729 7.722-19.82 5.075-30.27l45.882-45.882c11.386 13.319 19.279 29.853 22.17 48.374zm-22.317-208.05-45.825-45.825c2.71-10.163 1.101-21.249-4.844-30.309l50.674-50.674c14.635 17.059 23.491 39.214 23.491 63.401 0 24.19-8.858 46.347-23.496 63.407zm-10.602-137.415-50.634 50.634c-9.819-6.065-19.996-7.727-30.53-4.986l-45.645-45.644c36.05-30.932 90.758-30.933 126.809-.004zm-153.767 110.697c-13.563-33.218-6.972-72.894 16.353-100.085l42.235 42.234c-19.937 16.388-57.507 56.944-58.588 57.851zm59.85-28.887c0-5.754 2.167-11.167 6.08-15.349 8.552-8.54 22.85-9.99 32.33-.512 8.667 8.675 8.751 22.717.285 31.512-.095.086-.194.167-.286.259-4.249 4.25-9.899 6.59-15.909 6.59-12.407 0-22.5-10.093-22.5-22.5zm51.513 23.813 42.398 42.398c-27.256 23.379-67.014 29.959-100.312 16.262 16.733-19.973 57.136-57.711 57.914-58.66zm-280.971-36.387c2.511 3.716 3.838 8.064 3.838 12.574 0 12.407-10.094 22.5-22.5 22.5-5.989 0-11.625-2.326-15.87-6.55-8.081-7.952-7.741-24.058.007-31.806 7.168-7.162 24.823-9.181 34.525 3.282zm64.146 41.798c-21.139-17.495-37.67-40.32-58.697-57.925l42.497-42.497c23.46 27.349 29.879 67.028 16.2 100.422zm-26.806-111.03-45.785 45.784c-10.23-2.862-21.443-1.319-30.607 4.637l-50.422-50.421c36.051-30.933 90.763-30.933 126.814 0zm-137.42 10.608 50.333 50.333c-6.229 10.002-7.883 20.368-4.961 31.097l-45.368 45.367c-30.925-36.047-30.927-90.747-.004-126.797zm74.013 160.896c-24.187 0-46.342-8.856-63.401-23.492l42.094-42.094c17.586 20.958 40.28 37.491 57.807 58.527-11.544 4.687-23.783 7.059-36.5 7.059zm36.272 98.604c-17.592 20.934-40.34 37.4-57.747 58.455l-41.926-41.926c27.074-23.229 66.503-29.887 99.673-16.529zm-133.772 90.536c0-24.187 8.856-46.342 23.492-63.401l45.3 45.3c-2.944 10.653-1.024 21.938 5.195 31.009l-50.66 50.66c-14.65-17.113-23.327-39.355-23.327-63.568zm89.349 7.984c-9.819-9.362-6.642-25.233.205-32.62 6.717-7.246 20.489-8.86 29.962-.681 8.475 7.318 11.6 22.693 1.317 32.99-8.346 8.356-22.421 9.093-31.484.311zm82.325 55.583-42.851-42.851c21.163-17.499 37.645-40.449 58.776-58.025 4.859 11.759 14.901 60.462-15.925 100.876zm175.182-153.933c33.137-13.538 73.069-7.075 100.246 16.188l-42.403 42.403c-17.206-21.269-40.172-37.68-57.843-58.591zm28.669 59.646c6.01 0 11.66 2.34 15.909 6.59 7.116 8.926 9.087 22.868-.08 31.9-6.46 6.394-16.051 8.28-24.454 4.796-8.131-3.353-13.875-11.437-13.875-20.787 0-12.406 10.093-22.499 22.5-22.499zm-82.24-6.241c20.968 17.669 37.386 40.691 58.685 57.924l-42.438 42.438c-23.392-27.266-29.974-67.055-16.247-100.362zm26.854 110.97 45.937-45.937c10.348 2.65 20.348 1.01 30-4.919l51.026 51.026c-36.047 30.855-90.994 30.688-126.963-.17z"
       id="path6"
       style="fill:#ffffff;fill-opacity:1" />
  </g>
</svg>
