<?xml version="1.0" encoding="UTF-8" standalone="no"?>
<svg
   xmlns:dc="http://purl.org/dc/elements/1.1/"
   xmlns:cc="http://creativecommons.org/ns#"
   xmlns:rdf="http://www.w3.org/1999/02/22-rdf-syntax-ns#"
   xmlns:svg="http://www.w3.org/2000/svg"
   xmlns="http://www.w3.org/2000/svg"
   xmlns:sodipodi="http://sodipodi.sourceforge.net/DTD/sodipodi-0.dtd"
   xmlns:inkscape="http://www.inkscape.org/namespaces/inkscape"
   version="1.1"
   id="Layer_1"
   x="0px"
   y="0px"
   viewBox="0 0 512.004 512.004"
   style="enable-background:new 0 0 512.004 512.004;"
   xml:space="preserve"
   sodipodi:docname="dzik.svg"
   inkscape:version="1.0.1 (3bc2e813f5, 2020-09-07)"><metadata
   id="metadata49"><rdf:RDF><cc:Work
       rdf:about=""><dc:format>image/svg+xml</dc:format><dc:type
         rdf:resource="http://purl.org/dc/dcmitype/StillImage" /></cc:Work></rdf:RDF></metadata><defs
   id="defs47" /><sodipodi:namedview
   pagecolor="#ffffff"
   bordercolor="#666666"
   borderopacity="1"
   objecttolerance="10"
   gridtolerance="10"
   guidetolerance="10"
   inkscape:pageopacity="0"
   inkscape:pageshadow="2"
   inkscape:window-width="1920"
   inkscape:window-height="1017"
   id="namedview45"
   showgrid="false"
   inkscape:zoom="1.6601432"
   inkscape:cx="256.00201"
   inkscape:cy="256.00201"
   inkscape:window-x="-8"
   inkscape:window-y="-8"
   inkscape:window-maximized="1"
   inkscape:current-layer="g4" />
<g
   id="g6">
	<g
   id="g4">
		<path
   d="M495.062,179.413c-9.039-7.157-19.202-7.467-25.699-6.639c-8.293-12.745-18.78-23.467-30.5-30.868    c-18.428-11.639-41.227-14.04-65.844-14.426c-0.334-0.592-0.736-1.155-1.228-1.667c-17.235-17.97-53.385-30.574-107.446-37.458    c-39.353-5.012-73.396-5.078-74.826-5.078c-0.001,0-0.001,0-0.002,0c-1.621,0-3.206,0.477-4.558,1.371l-31.138,20.586    c-9.721-5.213-19.104-7.667-26.925-8.719c-18.287-2.455-32.123,2.056-32.704,2.25c-2.986,0.995-5.148,3.601-5.575,6.721    c-0.426,3.118,0.955,6.209,3.565,7.97c7.923,5.349,15.012,13.126,20.971,21.161c-7.654,7.191-14.531,18.102-21.719,29.531    c-8.27,13.148-17.537,27.879-26.748,33.709c-9.05-12.975-8.133-22.558-7.982-23.693c0.917-4.158-1.51-8.192-5.57-9.499    c-4.082-1.316-8.521,0.862-10.182,4.815c-5.273,12.554-5.533,25.336-3.537,36.806c-15.528,2.99-29.349,3.72-29.558,3.731    c-2.705,0.133-5.172,1.583-6.605,3.881c-1.432,2.298-1.65,5.152-0.58,7.639l22.878,53.188c0.041,0.522,0.132,1.044,0.273,1.556    c1.537,5.547,6.864,6.461,10.159,5.748l0.003,0.012l0.426-0.118l27.744-7.654c10.565-2.918,12.305-0.976,18.061,5.453    c7.508,8.387,18.786,20.991,52.827,20.99c0.558,0,1.126-0.003,1.696-0.01c7.648-0.093,14.645-0.905,21.004-2.394    c2.685,4.193,6.663,10.796,10.306,18.386c7.553,15.736,10.407,29.029,8.038,37.432c-2.601,9.222-8.257,16.269-14.245,23.729    c-8.872,11.053-18.927,23.581-17.085,43.373c0.396,4.25,3.961,7.499,8.229,7.499h32.19c3.293,0,6.272-1.955,7.582-4.976    c0.198-0.456,15.911-36.495,33.694-64.66c-0.548,3.678-1.381,7.133-2.55,10.171c-3.777,9.82-7.718,16.283-11.196,21.987    c-5.438,8.918-10.133,16.619-9.156,29.826c0.32,4.316,3.914,7.654,8.242,7.654h35.681c3.475,0,6.58-2.174,7.766-5.44    c0.094-0.258,9.462-26.061,17.93-52.742c1.381-4.35-1.027-8.996-5.377-10.378c-4.348-1.379-8.996,1.028-10.377,5.377    c-6.057,19.091-12.586,37.736-15.758,46.652h-21.035c1.006-3.834,3.122-7.302,6.197-12.346c3.652-5.989,8.196-13.442,12.51-24.658    c7.171-18.647,5.511-46.346-3.948-65.861c-5.213-10.757-12.294-17.785-20.477-20.324c-9.813-3.045-18.465-7.912-24.144-11.576    c10.126-14.398,9.055-30.031,8.997-30.759c-0.355-4.551-4.343-7.957-8.883-7.596c-4.55,0.355-7.952,4.332-7.596,8.883    c0.01,0.127,0.731,12.93-8.467,22.996c-4.024,4.403-9.395,7.71-16.045,9.92c-0.036,0.012-0.074,0.023-0.11,0.035    c-6.253,2.063-13.631,3.163-22.112,3.264c-27.829,0.34-35.373-8.064-42.008-15.476c-6.714-7.502-14.324-16.001-34.771-10.364    l-20.801,5.739l-16.578-38.539c5.861-0.639,13.396-1.665,21.361-3.254c5.137,14.082,12.111,23.836,12.695,24.638    c1.618,2.225,4.135,3.404,6.691,3.404c1.685,0,3.386-0.513,4.854-1.581c3.691-2.684,4.508-7.853,1.823-11.545    c-0.057-0.078-5.528-7.682-9.883-18.926c0.614-0.187,1.224-0.378,1.834-0.573c5.468,5.71,12.428,11.583,21.279,17.394    c3.815,2.503,8.939,1.441,11.444-2.376c2.504-3.816,1.441-8.939-2.376-11.444c-5.683-3.729-10.401-7.418-14.329-10.995    c11.355-8.258,20.629-22.993,29.649-37.331c5.697-9.058,11.538-18.337,17.033-24.277c6.5,10.939,10.26,19.758,10.338,19.942    c1.329,3.163,4.394,5.066,7.623,5.066c1.066,0,2.149-0.207,3.192-0.645c4.209-1.765,6.191-6.608,4.425-10.818    c-0.603-1.437-12.453-29.328-32.022-49.903c2.685,0.004,5.603,0.171,8.68,0.584c8.951,1.202,17.212,4.173,24.757,8.843    c0.131,0.09,0.266,0.172,0.401,0.255c8.781,5.524,16.583,13.369,23.317,23.535c2.52,3.805,7.647,4.845,11.455,2.326    c3.805-2.521,4.846-7.648,2.326-11.455c-1.115-1.684-2.249-3.293-3.395-4.843c12.508-0.744,31.152-1.262,51.484,0.207    c4.563,0.331,8.51-3.095,8.839-7.647c0.328-4.552-3.095-8.51-7.647-8.839c-30.775-2.223-57.241-0.161-66.842,0.783    c-0.285-0.25-0.572-0.497-0.857-0.74l23.456-15.507c34.632,0.269,116.218,5.828,154.818,27.685    c-21.449,0.117-43.389-0.125-63.668-5.132c-6.22-1.536-12.844-2.873-19.685-3.975c-4.51-0.724-8.747,2.339-9.473,6.845    c-0.725,4.507,2.339,8.747,6.845,9.473c6.396,1.029,12.57,2.276,18.352,3.703c23.969,5.92,48.932,5.749,73.069,5.58    c29.998-0.205,58.339-0.402,77.794,11.885c11.005,6.95,20.59,17.235,27.848,29.549c0.242,0.541,0.533,1.048,0.872,1.511    c3.646,6.437,6.673,13.392,8.926,20.712c7.235,23.515,5.51,47.27-4.859,66.886c-1.439,2.723-1.245,6.019,0.504,8.554l24.97,36.206    v85.994h-23.196c0.037-13.309,0.83-39.952,6.19-54.688c0.76-2.093,0.639-4.406-0.326-6.411c-0.965-2.007-2.706-3.539-4.817-4.25    c-0.596-0.201-59.711-20.662-70.174-73.492c-0.886-4.477-5.231-7.387-9.712-6.501c-4.478,0.887-7.388,5.235-6.501,9.712    c2.711,13.686,8.017,25.445,14.659,35.497c-45.077,4.039-92.294-1.781-109.805-4.345c0.252-15.17-1.105-25.998-1.207-26.778    c-0.587-4.525-4.727-7.717-9.252-7.132c-4.525,0.584-7.72,4.726-7.141,9.251c0.04,0.31,3.881,31.243-3.21,60.892    c-0.37,1.549-0.767,3.077-1.177,4.539c-1.232,4.395,1.332,8.956,5.727,10.188c0.746,0.209,1.496,0.309,2.235,0.309    c3.612,0,6.931-2.387,7.954-6.036c0.467-1.666,0.916-3.399,1.337-5.155c1.907-7.976,3.101-15.955,3.819-23.485    c14.358,2.09,44.022,5.711,77.232,5.711c0.516,0,1.039-0.009,1.557-0.011l35.007,34.068c-2.593,10.393-8.309,35.663-8.309,56.382    c0,4.564,3.7,8.265,8.265,8.265h34.495c4.106,0,7.588-3.014,8.179-7.076l9.284-63.888c1.459,0.688,2.822,1.302,4.052,1.836    c-5.835,23.924-4.851,59.444-4.801,61.112c0.134,4.465,3.793,8.015,8.261,8.015h39.645c4.564,0,8.265-3.7,8.265-8.265v-96.832    c0-1.676-0.509-3.312-1.461-4.692l-23.672-34.325c13.385-28.951,10.729-61.348-1.305-88.329c2.173,0.476,4.44,1.398,6.53,3.087    c9.254,7.47,12.576,27.328,9.357,55.916c-0.511,4.536,2.752,8.627,7.287,9.137c0.314,0.035,0.626,0.053,0.936,0.053    c4.15,0,7.727-3.118,8.202-7.34C514.708,214.632,509.447,190.805,495.062,179.413z M176.74,289.297    c6.357,4.371,17.741,11.299,31.265,15.496c3.597,1.118,7.425,5.401,10.503,11.749c2.19,4.517,3.848,9.732,4.975,15.197    c-19.587,24.52-39.176,66.094-45.674,80.459h-18.422c1.345-9.042,6.8-15.839,13.348-23.997    c6.444-8.03,13.749-17.131,17.263-29.588c6.237-22.111-9.325-51.616-18.365-66.186    C173.417,291.466,175.119,290.423,176.74,289.297z M424.792,405.293h-18.775c1.56-22.531,8.569-48.206,8.648-48.495    c0.8-2.905-0.044-6.016-2.204-8.118l-26.997-26.273c7.06-0.423,14.143-1.064,21.157-1.948    c8.862,9.338,18.565,16.574,27.304,21.986L424.792,405.293z"
   id="path2"
   style="fill:#ffffff;fill-opacity:1" />
	</g>
</g>
<g
   id="g12">
	<g
   id="g10">
		<path
   d="M123.401,190.944c-5.279,0-9.574,4.288-9.574,9.556c0,5.269,4.294,9.556,9.574,9.556c5.278,0,9.572-4.288,9.572-9.556    C132.975,195.23,128.68,190.944,123.401,190.944z"
   id="path8"
   style="fill:#ffffff;fill-opacity:1" />
	</g>
</g>
<g
   id="g14">
</g>
<g
   id="g16">
</g>
<g
   id="g18">
</g>
<g
   id="g20">
</g>
<g
   id="g22">
</g>
<g
   id="g24">
</g>
<g
   id="g26">
</g>
<g
   id="g28">
</g>
<g
   id="g30">
</g>
<g
   id="g32">
</g>
<g
   id="g34">
</g>
<g
   id="g36">
</g>
<g
   id="g38">
</g>
<g
   id="g40">
</g>
<g
   id="g42">
</g>
</svg>
