<?xml version="1.0" encoding="UTF-8" standalone="no"?>
<svg
   xmlns:dc="http://purl.org/dc/elements/1.1/"
   xmlns:cc="http://creativecommons.org/ns#"
   xmlns:rdf="http://www.w3.org/1999/02/22-rdf-syntax-ns#"
   xmlns:svg="http://www.w3.org/2000/svg"
   xmlns="http://www.w3.org/2000/svg"
   xmlns:sodipodi="http://sodipodi.sourceforge.net/DTD/sodipodi-0.dtd"
   xmlns:inkscape="http://www.inkscape.org/namespaces/inkscape"
   viewBox="0 0 512 512"
   version="1.1"
   id="svg46"
   sodipodi:docname="fireworks.svg"
   inkscape:version="1.0.1 (3bc2e813f5, 2020-09-07)">
  <metadata
     id="metadata52">
    <rdf:RDF>
      <cc:Work
         rdf:about="">
        <dc:format>image/svg+xml</dc:format>
        <dc:type
           rdf:resource="http://purl.org/dc/dcmitype/StillImage" />
      </cc:Work>
    </rdf:RDF>
  </metadata>
  <defs
     id="defs50" />
  <sodipodi:namedview
     pagecolor="#ffffff"
     bordercolor="#666666"
     borderopacity="1"
     objecttolerance="10"
     gridtolerance="10"
     guidetolerance="10"
     inkscape:pageopacity="0"
     inkscape:pageshadow="2"
     inkscape:window-width="1920"
     inkscape:window-height="1017"
     id="namedview48"
     showgrid="false"
     inkscape:zoom="1.6601562"
     inkscape:cx="256"
     inkscape:cy="256"
     inkscape:window-x="-8"
     inkscape:window-y="-8"
     inkscape:window-maximized="1"
     inkscape:current-layer="svg46" />
  <path
     d="m437.085938 118.484375c2.558593 0 5.117187-.972656 7.070312-2.925781l52.019531-52.023438c3.90625-3.902344 3.90625-10.234375 0-14.140625s-10.234375-3.90625-14.140625 0l-52.019531 52.019531c-3.90625 3.90625-3.90625 10.238282 0 14.144532 1.953125 1.953125 4.511719 2.925781 7.070313 2.925781zm0 0"
     id="path2"
     style="fill:#ffffff;fill-opacity:1" />
  <path
     d="m356.988281 115.558594c1.953125 1.953125 4.511719 2.929687 7.070313 2.929687s5.117187-.976562 7.070312-2.929687c3.90625-3.90625 3.90625-10.238282 0-14.144532l-63.023437-63.019531c-3.90625-3.90625-10.234375-3.90625-14.140625 0-3.90625 3.902344-3.90625 10.234375 0 14.140625zm0 0"
     id="path4"
     style="fill:#ffffff;fill-opacity:1" />
  <path
     d="m444.15625 174.441406c-3.90625-3.90625-10.234375-3.90625-14.140625 0s-3.90625 10.238282 0 14.144532l52.019531 52.019531c1.953125 1.953125 4.511719 2.929687 7.070313 2.929687 2.558593 0 5.117187-.976562 7.070312-2.929687 3.90625-3.90625 3.90625-10.238281 0-14.144531zm0 0"
     id="path6"
     style="fill:#ffffff;fill-opacity:1" />
  <path
     d="m400.570312 36.332031c-5.519531 0-10 4.476563-10 10v39.167969c0 5.523438 4.480469 10 10 10 5.523438 0 10-4.476562 10-10v-39.167969c0-5.519531-4.476562-10-10-10zm0 0"
     id="path8"
     style="fill:#ffffff;fill-opacity:1" />
  <path
     d="m400.570312 20c2.628907 0 5.207032-1.070312 7.070313-2.929688 1.859375-1.859374 2.929687-4.441406 2.929687-7.070312s-1.070312-5.210938-2.929687-7.070312c-1.863281-1.859376-4.441406-2.929688-7.070313-2.929688-2.632812 0-5.210937 1.070312-7.070312 2.929688-1.859375 1.859374-2.929688 4.441406-2.929688 7.070312s1.070313 5.210938 2.929688 7.070312c1.859375 1.859376 4.4375 2.929688 7.070312 2.929688zm0 0"
     id="path10"
     style="fill:#ffffff;fill-opacity:1" />
  <path
     d="m502 135h-41.929688c-5.519531 0-10 4.476562-10 10s4.480469 10 10 10h41.929688c5.523438 0 10-4.476562 10-10s-4.476562-10-10-10zm0 0"
     id="path12"
     style="fill:#ffffff;fill-opacity:1" />
  <path
     d="m400.570312 194.5c-5.519531 0-10 4.476562-10 10v62.734375c0 5.523437 4.480469 10 10 10 5.523438 0 10-4.476563 10-10v-62.734375c0-5.523438-4.476562-10-10-10zm0 0"
     id="path14"
     style="fill:#ffffff;fill-opacity:1" />
  <path
     d="m300.5 155h40.570312c5.523438 0 10-4.476562 10-10s-4.476562-10-10-10h-40.570312c-5.523438 0-10 4.476562-10 10s4.476562 10 10 10zm0 0"
     id="path16"
     style="fill:#ffffff;fill-opacity:1" />
  <path
     d="m256 155c2.628906 0 5.210938-1.070312 7.070312-2.929688 1.859376-1.859374 2.929688-4.441406 2.929688-7.070312s-1.070312-5.210938-2.929688-7.070312c-1.859374-1.859376-4.441406-2.929688-7.070312-2.929688s-5.210938 1.070312-7.070312 2.929688c-1.859376 1.859374-2.929688 4.441406-2.929688 7.070312s1.070312 5.210938 2.929688 7.070312c1.859374 1.859376 4.441406 2.929688 7.070312 2.929688zm0 0"
     id="path18"
     style="fill:#ffffff;fill-opacity:1" />
  <path
     d="m400.570312 114c-17.09375 0-31 13.90625-31 31s13.90625 31 31 31 31-13.90625 31-31-13.90625-31-31-31zm0 42c-6.0625 0-11-4.933594-11-11s4.9375-11 11-11c6.066407 0 11 4.933594 11 11s-4.933593 11-11 11zm0 0"
     id="path20"
     style="fill:#ffffff;fill-opacity:1" />
  <path
     d="m348.382812 183.046875c-32.585937 32.589844-58.058593 70.695313-75.707031 113.269531-17.648437 42.570313-26.609375 87.523438-26.636719 133.609375l-.039062 72.066407c-.003906 5.523437 4.472656 10.003906 9.992188 10.007812h.003906c5.523437 0 10-4.472656 10.003906-9.992188l.039062-72.070312c.050782-87.917969 34.316407-170.578125 96.484376-232.746094 3.90625-3.90625 3.90625-10.238281 0-14.144531-3.902344-3.902344-10.234376-3.902344-14.140626 0zm0 0"
     id="path22"
     style="fill:#ffffff;fill-opacity:1" />
  <path
     d="m67.84375 162.023438c1.953125 1.953124 4.511719 2.929687 7.070312 2.929687 2.558594 0 5.117188-.976563 7.070313-2.929687 3.90625-3.90625 3.90625-10.238282 0-14.140626l-52.019531-52.023437c-3.90625-3.902344-10.234375-3.902344-14.144532 0-3.902343 3.90625-3.902343 10.238281 0 14.144531zm0 0"
     id="path24"
     style="fill:#ffffff;fill-opacity:1" />
  <path
     d="m147.941406 164.953125c2.558594 0 5.117188-.976563 7.070313-2.929687l63.023437-63.019532c3.902344-3.90625 3.902344-10.238281 0-14.144531-3.90625-3.90625-10.238281-3.90625-14.144531 0l-63.023437 63.023437c-3.902344 3.902344-3.902344 10.234376 0 14.140626 1.957031 1.953124 4.515624 2.929687 7.074218 2.929687zm0 0"
     id="path26"
     style="fill:#ffffff;fill-opacity:1" />
  <path
     d="m67.84375 220.910156-52.019531 52.019532c-3.90625 3.90625-3.90625 10.234374 0 14.140624 1.953125 1.953126 4.511719 2.929688 7.070312 2.929688 2.558594 0 5.117188-.976562 7.070313-2.929688l52.019531-52.019531c3.90625-3.902343 3.90625-10.234375 0-14.140625s-10.234375-3.90625-14.140625 0zm0 0"
     id="path28"
     style="fill:#ffffff;fill-opacity:1" />
  <path
     d="m111.429688 141.96875c5.519531 0 10-4.480469 10-10v-20.96875c0-5.523438-4.480469-10-10-10-5.523438 0-10 4.476562-10 10v20.96875c0 5.519531 4.476562 10 10 10zm0 0"
     id="path30"
     style="fill:#ffffff;fill-opacity:1" />
  <path
     d="m111.429688 83.265625c5.519531 0 10-4.476563 10-10v-26.933594c0-5.523437-4.480469-10-10-10-5.523438 0-10 4.476563-10 10v26.933594c0 5.523437 4.476562 10 10 10zm0 0"
     id="path32"
     style="fill:#ffffff;fill-opacity:1" />
  <path
     d="m61.929688 191.46875c0-5.523438-4.480469-10-10-10h-41.929688c-5.523438 0-10 4.476562-10 10 0 5.519531 4.476562 10 10 10h41.929688c5.519531 0 10-4.480469 10-10zm0 0"
     id="path34"
     style="fill:#ffffff;fill-opacity:1" />
  <path
     d="m111.429688 293.5c5.519531 0 10-4.476562 10-10v-32.53125c0-5.523438-4.480469-10-10-10-5.523438 0-10 4.476562-10 10v32.53125c0 5.523438 4.476562 10 10 10zm0 0"
     id="path36"
     style="fill:#ffffff;fill-opacity:1" />
  <path
     d="m111.429688 306.800781c-2.640626 0-5.210938 1.070313-7.070313 2.929688-1.867187 1.859375-2.929687 4.441406-2.929687 7.070312 0 2.628907 1.0625 5.210938 2.929687 7.070313 1.859375 1.859375 4.441406 2.929687 7.070313 2.929687 2.628906 0 5.210937-1.070312 7.070312-2.929687s2.929688-4.441406 2.929688-7.070313c0-2.628906-1.070313-5.210937-2.929688-7.070312s-4.441406-2.929688-7.070312-2.929688zm0 0"
     id="path38"
     style="fill:#ffffff;fill-opacity:1" />
  <path
     d="m211.5 181.46875h-40.570312c-5.523438 0-10 4.476562-10 10 0 5.519531 4.476562 10 10 10h40.570312c5.523438 0 10-4.480469 10-10 0-5.523438-4.476562-10-10-10zm0 0"
     id="path40"
     style="fill:#ffffff;fill-opacity:1" />
  <path
     d="m111.429688 160.46875c-17.09375 0-31 13.90625-31 31 0 17.089844 13.90625 31 31 31s31-13.910156 31-31c0-17.09375-13.910157-31-31-31zm0 42c-6.066407 0-11-4.9375-11-11 0-6.066406 4.933593-11 11-11 6.0625 0 11 4.933594 11 11 0 6.0625-4.9375 11-11 11zm0 0"
     id="path42"
     style="fill:#ffffff;fill-opacity:1" />
  <path
     d="m163.617188 229.515625c-3.90625-3.90625-10.234376-3.90625-14.140626 0s-3.90625 10.238281 0 14.140625c27.460938 27.460938 49.660157 59.25 65.980469 94.492188 1.691407 3.652343 5.304688 5.800781 9.078125 5.800781 1.40625 0 2.835938-.300781 4.195313-.929688 5.011719-2.320312 7.195312-8.265625 4.875-13.277343-17.3125-37.378907-40.859375-71.101563-69.988281-100.226563zm0 0"
     id="path44"
     style="fill:#ffffff;fill-opacity:1" />
</svg>
