<svg id="Capa_1" enable-background="new 0 0 512 512" height="512" viewBox="0 0 512 512" width="512" xmlns="http://www.w3.org/2000/svg"><g><path d="m511.999 107.338-.085-16.674h-130.002l-186.389-12.253c-25.834-1.697-51.133 1.923-75.21 10.763-23.185 8.512-44.127 21.43-62.244 38.395-18.116 16.965-32.38 37.014-42.396 59.591-10.399 23.446-15.673 48.458-15.673 74.342v101.623c0 25.277 12.989 48.05 34.746 60.918 11.209 6.629 23.597 9.953 36.008 9.952 11.677 0 23.375-2.945 34.115-8.848l.626-.344h96.657c24.489 0 44.412-19.923 44.412-44.412v-33.133l95.996-52.768c24.978-13.731 42.74-36.986 49.802-63.823 31.732-.788 61.419-13.547 83.893-36.131 23.21-23.324 35.904-54.29 35.744-87.198zm-295.466 273.054c0 7.931-6.452 14.382-14.382 14.382h-42.028l56.41-31.008zm149.186-175.835c0 26.483-14.417 50.86-37.625 63.618l-237.691 130.657c-12.754 7.009-27.844 6.772-40.37-.636s-20.004-20.519-20.004-35.071v-101.623c0-42.906 17.247-82.686 48.566-112.013 28.772-26.942 65.566-41.456 104.556-41.456 3.451 0 182.567 11.661 182.567 11.661v84.863zm30.029-4.108v-79.755h85.36c-2.712 19.854-11.751 38.201-26.14 52.661-15.992 16.07-36.82 25.551-59.22 27.094z"/></g></svg>