<?xml version="1.0" encoding="UTF-8" standalone="no"?>
<svg
   xmlns:dc="http://purl.org/dc/elements/1.1/"
   xmlns:cc="http://creativecommons.org/ns#"
   xmlns:rdf="http://www.w3.org/1999/02/22-rdf-syntax-ns#"
   xmlns:svg="http://www.w3.org/2000/svg"
   xmlns="http://www.w3.org/2000/svg"
   xmlns:sodipodi="http://sodipodi.sourceforge.net/DTD/sodipodi-0.dtd"
   xmlns:inkscape="http://www.inkscape.org/namespaces/inkscape"
   id="Capa_1"
   enable-background="new 0 0 512 512"
   height="512"
   viewBox="0 0 512 512"
   width="512"
   version="1.1"
   sodipodi:docname="money-bag.svg"
   inkscape:version="1.0.1 (3bc2e813f5, 2020-09-07)">
  <metadata
     id="metadata13">
    <rdf:RDF>
      <cc:Work
         rdf:about="">
        <dc:format>image/svg+xml</dc:format>
        <dc:type
           rdf:resource="http://purl.org/dc/dcmitype/StillImage" />
      </cc:Work>
    </rdf:RDF>
  </metadata>
  <defs
     id="defs11" />
  <sodipodi:namedview
     pagecolor="#ffffff"
     bordercolor="#666666"
     borderopacity="1"
     objecttolerance="10"
     gridtolerance="10"
     guidetolerance="10"
     inkscape:pageopacity="0"
     inkscape:pageshadow="2"
     inkscape:window-width="1920"
     inkscape:window-height="1017"
     id="namedview9"
     showgrid="false"
     inkscape:zoom="0.83007813"
     inkscape:cx="55.059012"
     inkscape:cy="314.4039"
     inkscape:window-x="-8"
     inkscape:window-y="-8"
     inkscape:window-maximized="1"
     inkscape:current-layer="g6" />
  <g
     id="g6">
    <path
       d="m301.891 71.284 32.322-71.284h-156.426l32.322 71.284z"
       id="path2"
       style="fill:#ffffff;fill-opacity:1" />
    <path
       d="m458.877 334.549-155.349-233.265h-95.055l-155.35 233.265c-23.731 35.632-25.833 79.437-5.623 117.178s57.834 60.273 100.646 60.273h215.708c42.812 0 80.436-22.532 100.646-60.273 20.209-37.741 18.108-81.545-5.623-117.178zm-137.249-80.43h-101.256v37.523h101.257v97.523h-50.629v35.602h-30v-35.602h-50.628v-30h101.257v-37.523h-101.257v-97.523h50.628v-35.602h30v35.602h50.628z"
       id="path4"
       style="fill:#ffffff;fill-opacity:1" />
  </g>
</svg>
