<?xml version="1.0" encoding="UTF-8" standalone="no"?>
<svg
   xmlns:dc="http://purl.org/dc/elements/1.1/"
   xmlns:cc="http://creativecommons.org/ns#"
   xmlns:rdf="http://www.w3.org/1999/02/22-rdf-syntax-ns#"
   xmlns:svg="http://www.w3.org/2000/svg"
   xmlns="http://www.w3.org/2000/svg"
   xmlns:sodipodi="http://sodipodi.sourceforge.net/DTD/sodipodi-0.dtd"
   xmlns:inkscape="http://www.inkscape.org/namespaces/inkscape"
   version="1.1"
   id="Layer_1"
   x="0px"
   y="0px"
   viewBox="0 0 512 512"
   style="enable-background:new 0 0 512 512;"
   xml:space="preserve"
   sodipodi:docname="question-mark.svg"
   inkscape:version="1.0.1 (3bc2e813f5, 2020-09-07)"><metadata
   id="metadata61"><rdf:RDF><cc:Work
       rdf:about=""><dc:format>image/svg+xml</dc:format><dc:type
         rdf:resource="http://purl.org/dc/dcmitype/StillImage" /></cc:Work></rdf:RDF></metadata><defs
   id="defs59" /><sodipodi:namedview
   pagecolor="#ffffff"
   bordercolor="#666666"
   borderopacity="1"
   objecttolerance="10"
   gridtolerance="10"
   guidetolerance="10"
   inkscape:pageopacity="0"
   inkscape:pageshadow="2"
   inkscape:window-width="1920"
   inkscape:window-height="1017"
   id="namedview57"
   showgrid="false"
   inkscape:zoom="1.6601562"
   inkscape:cx="256"
   inkscape:cy="256"
   inkscape:window-x="-8"
   inkscape:window-y="-8"
   inkscape:window-maximized="1"
   inkscape:current-layer="g10" />
<g
   id="g6">
	<g
   id="g4">
		<path
   d="M256.55,428.956c-22.895,0-41.522,18.627-41.522,41.522c0,22.895,18.627,41.522,41.522,41.522    c22.895,0,41.522-18.627,41.522-41.522C298.072,447.583,279.445,428.956,256.55,428.956z M256.55,491.602    c-11.647,0-21.124-9.477-21.124-21.125c0-11.647,9.476-21.124,21.124-21.124c11.648,0,21.124,9.477,21.124,21.125    S268.197,491.602,256.55,491.602z"
   id="path2"
   style="fill:#ffffff;fill-opacity:1" />
	</g>
</g>
<g
   id="g12">
	<g
   id="g10">
		<path
   d="M256,0C169.169,0,98.527,70.642,98.527,157.473c0,22.935,18.659,41.594,41.594,41.594s41.594-18.659,41.594-41.594    c0-40.961,33.324-74.284,74.284-74.284s74.284,33.322,74.284,74.283S296.96,231.755,256,231.755    c-22.935,0-41.594,18.659-41.594,41.594v97.041c0,22.935,18.659,41.594,41.594,41.594s41.594-18.658,41.594-41.594v-61.025    c31.373-8.622,59.702-27.049,80.458-52.489c22.841-27.995,35.42-63.298,35.42-99.404C413.473,70.642,342.831,0,256,0z     M285.224,291.412c-4.687,1.022-8.028,5.17-8.028,9.966v69.014c0,11.687-9.509,21.196-21.196,21.196    c-11.687,0-21.196-9.509-21.196-21.196V273.35c0-11.687,9.509-21.196,21.196-21.196c52.208,0,94.682-42.474,94.682-94.681    S308.208,62.79,256,62.79s-94.682,42.475-94.682,94.682c0,11.687-9.509,21.196-21.196,21.196s-21.196-9.509-21.196-21.196    c0-75.583,61.491-137.074,137.074-137.074s137.074,61.491,137.074,137.073C393.074,221.461,347.716,277.792,285.224,291.412z"
   id="path8"
   style="fill:#ffffff;fill-opacity:1" />
	</g>
</g>
<g
   id="g18">
	<g
   id="g16">
		<path
   d="M256,299.857c-5.633,0-10.199,4.566-10.199,10.199v59.155c0,5.633,4.566,10.199,10.199,10.199    c5.633,0,10.199-4.566,10.199-10.199v-59.155C266.199,304.423,261.633,299.857,256,299.857z"
   id="path14"
   style="fill:#ffffff;fill-opacity:1" />
	</g>
</g>
<g
   id="g24">
	<g
   id="g22">
		<path
   d="M256,263.139c-5.633,0-10.199,4.566-10.199,10.199v9.179c0,5.633,4.566,10.199,10.199,10.199    c5.633,0,10.199-4.566,10.199-10.199v-9.179C266.199,267.706,261.633,263.139,256,263.139z"
   id="path20"
   style="fill:#ffffff;fill-opacity:1" />
	</g>
</g>
<g
   id="g26">
</g>
<g
   id="g28">
</g>
<g
   id="g30">
</g>
<g
   id="g32">
</g>
<g
   id="g34">
</g>
<g
   id="g36">
</g>
<g
   id="g38">
</g>
<g
   id="g40">
</g>
<g
   id="g42">
</g>
<g
   id="g44">
</g>
<g
   id="g46">
</g>
<g
   id="g48">
</g>
<g
   id="g50">
</g>
<g
   id="g52">
</g>
<g
   id="g54">
</g>
</svg>
