<svg id="Layer_1" enable-background="new 0 0 512 512" height="512" viewBox="0 0 512 512" width="512" xmlns="http://www.w3.org/2000/svg"><g><circle cx="502" cy="162.01" r="10"/><path d="m502 127.008c5.51 0 10-4.49 10-10.001v-107.006c0-2.63-1.07-5.21-2.93-7.071-1.86-1.86-4.44-2.93-7.07-2.93h-492c-2.63 0-5.21 1.07-7.07 2.93s-2.93 4.441-2.93 7.071v336.021c0 11.03 8.97 20.002 20 20.002h10v20c-16.542 0-30 13.459-30 30.002 0 12.824 8.09 23.79 19.432 28.074l-8.55 56.433c-.827 5.461 3.637 11.028 9.144 11.443 4.847.365 9.88-3.493 10.63-8.446l8.712-57.501h61.264l8.712 57.501c.75 4.953 5.783 8.811 10.63 8.446 5.507-.415 9.971-5.981 9.144-11.443l-8.55-56.433c11.342-4.285 19.432-15.25 19.432-28.074 0-16.543-13.458-30.002-30-30.002v-20h10c11.03 0 20-8.971 20-20.002v-20.001h46v20.001c0 11.03 8.97 20.002 20 20.002h10v20c-16.542 0-30 13.459-30 30.002 0 12.824 8.09 23.79 19.432 28.074l-8.55 56.433c-.827 5.461 3.637 11.028 9.144 11.443 4.847.365 9.88-3.493 10.63-8.446l8.712-57.501h61.264l8.712 57.501c.75 4.953 5.783 8.811 10.63 8.446 5.507-.415 9.971-5.981 9.144-11.443l-8.55-56.433c11.342-4.285 19.432-15.25 19.432-28.074 0-16.543-13.458-30.002-30-30.002v-20h10c11.03 0 20-8.971 20-20.002v-20.001h46v20.001c0 11.03 8.97 20.002 20 20.002h10v20c-16.542 0-30 13.459-30 30.002 0 12.824 8.09 23.79 19.432 28.074l-8.55 56.433c-.827 5.461 3.637 11.028 9.144 11.443 4.847.365 9.88-3.493 10.63-8.446l8.712-57.501h61.264l8.712 57.501c.75 4.953 5.783 8.811 10.63 8.446 5.507-.415 9.971-5.981 9.144-11.443l-8.55-56.433c11.342-4.285 19.432-15.25 19.432-28.074 0-16.543-13.458-30.002-30-30.002v-20h10c11.03 0 20-8.971 20-20.002v-139.009c0-5.52-4.49-10.001-10-10.001s-10 4.48-10 10.001v55.053c-12.72-12.981-30.43-21.051-50-21.051-36.92 0-67.25 29.002-69.82 65.004h-46.36c-2.57-36.002-32.9-65.004-69.82-65.004s-67.25 29.002-69.82 65.004h-46.36c-2.57-36.002-32.9-65.004-69.82-65.004-19.57 0-37.28 8.07-50 21.051v-242.065h472v97.006c0 5.511 4.49 10.001 10 10.001zm-10 289.019c0 5.514-4.486 10.001-10 10.001h-80c-5.514 0-10-4.487-10-10.001s4.486-10.001 10-10.001h80c5.514 0 10 4.487 10 10.001zm-70-30.002v-20.001h40v20.001zm-30-75.005c0-1.69.08-3.36.25-5 2.52-25.232 23.87-45.003 49.75-45.003s47.23 19.771 49.75 45.003c.17 1.64.25 3.311.25 5.001l.01 35.003s0 0-.01 0h-100zm-86 105.007c0 5.514-4.486 10.001-10 10.001h-80c-5.514 0-10-4.487-10-10.001s4.486-10.001 10-10.001h80c5.514 0 10 4.487 10 10.001zm-70-30.002v-20.001h40v20.001zm-30-75.005c0-1.69.08-3.36.25-5 2.52-25.232 23.87-45.003 49.75-45.003s47.23 19.771 49.75 45.003c.17 1.64.25 3.311.25 5.001l.01 35.003s0 0-.01 0h-100zm-86 105.007c0 5.514-4.486 10.001-10 10.001h-80c-5.514 0-10-4.487-10-10.001s4.486-10.001 10-10.001h80c5.514 0 10 4.487 10 10.001zm-70-30.002v-20.001h40v20.001zm-29.75-80.006c2.52-25.232 23.87-45.003 49.75-45.003s47.23 19.771 49.75 45.003c.17 1.64.25 3.311.25 5.001l.01 35.003s0 0-.01 0h-100v-35.003c0-1.691.08-3.361.25-5.001z"/><path d="m225.86 82.265c-3.1-1.72-6.88-1.68-9.93.12s-4.93 5.08-4.93 8.621v100.006c0 3.54 1.88 6.82 4.93 8.621 1.56.92 3.32 1.38 5.07 1.38 1.67 0 3.35-.42 4.86-1.26l90-50.003c3.17-1.76 5.14-5.11 5.14-8.741s-1.97-6.98-5.14-8.741zm5.14 91.746v-66.004l59.41 33.002z"/></g></svg>